# xmcd
#
# Track frame offsets: 
#        150
#        18410
#        37987
#        56144
#        73197
#        92966
#        112689
#        131655
#        148567
#        167782
#        185611
#        206517
#        224261
#        242517
#        263598
#        281439
#
# Disc length: 4005 seconds
#
# Revision: 2
# Processed by: cddbd v1.5.2PL0 Copyright (c) Steve Scherf et al.
# Submitted via: ExactAudioCopyFreeDBPlugin 1.0
#
DISCID=e80fa310
DTITLE=Dennis Edwards - The Essential Collection
DYEAR=2002
DGENRE=Soul
TTITLE0=Don't Look Any Further
TTITLE1=No Such Thing
TTITLE2=I Thought I Could Handle It
TTITLE3=Givin' So Much
TTITLE4=Shake Hands (Come Out Dancing)
TTITLE5=Breakin' Loose
TTITLE6=Another Place In Time
TTITLE7=Amanda
TTITLE8=I'm Up For You
TTITLE9=(You're My) Aphrodisiac
TTITLE10=Why Do People Fall In Love
TTITLE11=Try A Little Tenderness
TTITLE12=Just Like You
TTITLE13=Can't Fight It
TTITLE14=Let's Go Up
TTITLE15=Coolin' Out
EXTD=YEAR: 2002
EXTT0=
EXTT1=
EXTT2=
EXTT3=
EXTT4=
EXTT5=
EXTT6=
EXTT7=
EXTT8=
EXTT9=
EXTT10=
EXTT11=
EXTT12=
EXTT13=
EXTT14=
EXTT15=
PLAYORDER=
